<svg width="270" height="117" viewBox="0 0 270 117" fill="none" xmlns="http://www.w3.org/2000/svg">
<rect width="270" height="117" fill="white"/>
<g opacity="0.58">
<mask id="mask0_0_813" style="mask-type:luminance" maskUnits="userSpaceOnUse" x="167" y="18" width="91" height="90">
<path d="M257.471 18.0044H167.998V107.478H257.471V18.0044Z" fill="white"/>
</mask>
<g mask="url(#mask0_0_813)">
<mask id="mask1_0_813" style="mask-type:luminance" maskUnits="userSpaceOnUse" x="167" y="18" width="91" height="90">
<path d="M257.471 18.0044H167.998V107.478H257.471V18.0044Z" fill="white"/>
</mask>
<g mask="url(#mask1_0_813)">
<path d="M257.314 59.0754C259.338 83.6963 241.018 105.299 216.398 107.322C191.777 109.345 170.174 91.0262 168.151 66.4053C166.128 41.7844 184.447 20.1817 209.068 18.1585C233.689 16.1354 255.291 34.4545 257.314 59.0754Z" fill="#B7C5E5"/>
</g>
</g>
</g>
<g opacity="0.31">
<mask id="mask2_0_813" style="mask-type:luminance" maskUnits="userSpaceOnUse" x="236" y="22" width="34" height="35">
<path d="M269.996 22.9572H236.74V56.2125H269.996V22.9572Z" fill="white"/>
</mask>
<g mask="url(#mask2_0_813)">
<mask id="mask3_0_813" style="mask-type:luminance" maskUnits="userSpaceOnUse" x="236" y="22" width="34" height="35">
<path d="M269.996 22.957H236.74V56.2124H269.996V22.957Z" fill="white"/>
</mask>
<g mask="url(#mask3_0_813)">
<path d="M269.932 38.2247C270.684 47.3788 263.873 55.4052 254.719 56.1569C245.565 56.9087 237.539 50.0985 236.787 40.9444C236.035 31.7903 242.846 23.7639 252 23.0122C261.154 22.2604 269.18 29.0706 269.932 38.2247Z" fill="#EE6727"/>
</g>
</g>
</g>
<g opacity="0.58">
<mask id="mask4_0_813" style="mask-type:luminance" maskUnits="userSpaceOnUse" x="237" y="10" width="12" height="11">
<path d="M248.276 10H237.707V20.5692H248.276V10Z" fill="white"/>
</mask>
<g mask="url(#mask4_0_813)">
<mask id="mask5_0_813" style="mask-type:luminance" maskUnits="userSpaceOnUse" x="237" y="10" width="12" height="11">
<path d="M248.28 10H237.711V20.5692H248.28V10Z" fill="white"/>
</mask>
<g mask="url(#mask5_0_813)">
<path d="M248.255 14.8536C248.498 17.7612 246.331 20.3151 243.423 20.5583C240.516 20.7905 237.962 18.6346 237.73 15.7159C237.486 12.8083 239.653 10.2545 242.561 10.0223C245.469 9.77907 248.022 11.946 248.255 14.8536Z" fill="#719AD0"/>
</g>
</g>
</g>
<path d="M216.059 53.6588C215.385 50.8617 213.66 48.4848 211.206 46.9812C208.74 45.4776 205.855 45.0133 203.047 45.6877C200.25 46.3621 197.873 48.0757 196.369 50.5411C194.866 53.0065 194.401 55.9031 195.076 58.7002C195.75 61.4972 197.475 63.8742 199.94 65.3888C201.919 66.6049 204.185 67.1356 206.452 66.9477C207.005 66.8924 207.546 66.815 208.099 66.6823C210.896 66.0079 213.273 64.2943 214.777 61.8289C216.28 59.3635 216.745 56.4669 216.07 53.6698M201.377 63.0008C199.553 61.8842 198.271 60.1263 197.773 58.0479C197.276 55.9805 197.618 53.8246 198.746 52.0005C199.863 50.1763 201.621 48.8938 203.699 48.3963C204.108 48.2968 204.517 48.2305 204.926 48.1973C206.607 48.0536 208.287 48.4516 209.758 49.3582C211.582 50.4748 212.864 52.2326 213.362 54.3111C213.859 56.3785 213.516 58.5343 212.4 60.3585C211.283 62.1827 209.514 63.4651 207.447 63.9626C205.368 64.4601 203.224 64.1174 201.399 63.0008" fill="#403644"/>
<path d="M212.403 14.1128C211.596 14.3229 210.933 14.8315 210.513 15.5501C210.092 16.2687 209.971 17.0979 210.181 17.9049C210.391 18.7009 210.911 19.3753 211.618 19.7954C212.337 20.2156 213.177 20.3372 213.973 20.1271C214.78 19.9171 215.443 19.3974 215.864 18.6899C216.284 17.9713 216.405 17.131 216.195 16.335C215.764 14.6767 214.061 13.6706 212.403 14.1128Z" fill="white"/>
<path d="M259.269 68.2632H259.236C258.507 68.3185 257.888 68.7165 257.534 69.3356C257.169 69.9657 257.136 70.7065 257.456 71.3809C257.821 72.1437 258.672 72.6412 259.524 72.5859C260.298 72.5528 260.895 72.1437 261.271 71.5135C261.635 70.8834 261.669 70.1426 261.348 69.4682C260.983 68.6943 260.132 68.2079 259.281 68.2632" fill="white"/>
<path d="M266.704 37.1857C266.306 35.5605 265.311 34.1785 263.884 33.3051C262.458 32.4318 260.778 32.1664 259.142 32.5534C255.781 33.3604 253.702 36.7435 254.509 40.1044C254.764 41.1436 255.261 42.0833 255.969 42.8572L242.414 63.2438C240.944 62.7463 239.319 62.6357 237.705 63.0337C235.483 63.5644 233.581 64.9464 232.387 66.9032C232.343 66.9696 232.31 67.0469 232.276 67.1133L207.313 54.8305L213.382 21.4203C213.438 21.4203 213.493 21.4203 213.559 21.4203C213.802 21.3982 214.057 21.3651 214.3 21.2987C215.417 21.0113 216.345 20.3037 216.931 19.3087C217.517 18.3137 217.672 17.1529 217.384 16.0473C216.787 13.7588 214.433 12.3768 212.133 12.9738C211.027 13.2613 210.088 13.9688 209.513 14.9639C208.927 15.9478 208.772 17.1086 209.06 18.2253C209.347 19.3419 210.055 20.2706 211.05 20.8455C211.293 21.0002 211.558 21.0997 211.823 21.1992L205.588 55.527L204.361 54.6536L181.863 86.538C180.624 86.14 179.298 86.0737 177.993 86.3832C176.125 86.8255 174.555 87.9753 173.538 89.6115C172.532 91.2477 172.233 93.1825 172.675 95.0398C173.118 96.9082 174.267 98.4892 175.904 99.4952C177.219 100.302 178.723 100.656 180.238 100.534C180.602 100.501 180.967 100.446 181.332 100.358C183.2 99.9153 184.781 98.7545 185.787 97.1183C186.794 95.482 187.092 93.5473 186.65 91.6899C186.318 90.319 185.611 89.1029 184.604 88.1521L205.599 58.3904L216.887 84.9239C216.036 85.6978 215.616 86.8918 215.925 88.0858C216.323 89.5894 217.749 90.5733 219.253 90.4407C219.43 90.4296 219.618 90.3964 219.795 90.3522C220.613 90.1422 221.298 89.6225 221.729 88.8818C222.16 88.1521 222.282 87.3009 222.061 86.4717C221.851 85.6536 221.331 84.9681 220.602 84.548C219.905 84.1389 219.098 84.0173 218.313 84.1942L207.103 57.8487L231.292 69.7445C231.049 70.9496 231.06 72.1878 231.359 73.415C231.889 75.6482 233.271 77.5387 235.228 78.7438C236.798 79.7167 238.6 80.1368 240.413 79.9931C240.856 79.9489 241.298 79.8825 241.729 79.783C245.41 78.8986 247.975 75.7477 248.296 72.1657L256.223 71.4803C256.267 71.635 256.322 71.7788 256.389 71.9225C256.964 73.1386 258.268 73.9014 259.617 73.8019H259.672C260.778 73.7135 261.762 73.0944 262.315 72.1436C262.878 71.1817 262.923 69.9988 262.447 68.9817C261.861 67.7545 260.568 67.0027 259.219 67.0912C258.08 67.1686 257.085 67.7877 256.521 68.7495C256.311 69.1033 256.179 69.4792 256.112 69.8772L248.285 70.5516C248.241 70.1757 248.185 69.7887 248.097 69.4018C247.611 67.3897 246.461 65.7203 244.924 64.5594L258.279 44.4713C259.186 44.8362 260.159 44.991 261.132 44.9136C261.452 44.8915 261.773 44.8362 262.093 44.7588C265.454 43.9517 267.533 40.5687 266.737 37.2078M210.187 17.9047C209.977 17.1086 210.099 16.2684 210.519 15.5498C210.939 14.8312 211.602 14.3226 212.409 14.1126C214.068 13.6703 215.77 14.6764 216.201 16.3348C216.412 17.1418 216.301 17.982 215.87 18.6896C215.45 19.4082 214.786 19.9168 213.979 20.1268C213.183 20.3369 212.343 20.2263 211.624 19.8062C210.906 19.3861 210.397 18.7117 210.187 17.9047ZM183.388 95.6589C182.769 96.665 181.807 97.3615 180.669 97.6379C179.53 97.9032 178.347 97.7153 177.352 97.1072C176.357 96.4991 175.649 95.5263 175.373 94.3875C175.108 93.2488 175.296 92.0658 175.904 91.0708C176.523 90.0648 177.485 89.3683 178.623 89.0919C178.845 89.0366 179.077 89.0034 179.298 88.9813C180.226 88.9039 181.144 89.125 181.94 89.6225C182.946 90.2417 183.643 91.2035 183.919 92.3422C184.195 93.481 184.007 94.6639 183.388 95.6589ZM257.527 69.3355C257.892 68.7163 258.511 68.3294 259.23 68.2741C259.241 68.2741 259.252 68.2741 259.274 68.2741C260.126 68.2188 260.977 68.7163 261.342 69.4902C261.662 70.1536 261.629 70.8943 261.264 71.5245C260.899 72.1546 260.291 72.5637 259.517 72.5969C258.666 72.6521 257.815 72.1546 257.45 71.3918C257.129 70.7174 257.163 69.9767 257.527 69.3465M238.346 65.7534C238.644 65.676 238.943 65.6318 239.23 65.6097C239.761 65.5655 240.281 65.6097 240.789 65.6982L237.97 69.9325L234.764 68.3626C235.582 67.0469 236.853 66.1183 238.346 65.7645M245.355 70.043C245.41 70.2973 245.455 70.5405 245.477 70.7837L241.165 71.1596L241.309 72.7516L245.433 72.3979C245.046 74.609 243.387 76.4995 241.066 77.0523C239.562 77.4171 238.003 77.1628 236.677 76.3558C235.35 75.5377 234.421 74.2663 234.056 72.7627C233.924 72.1989 233.868 71.6129 233.913 71.0491L238.943 73.5255L243.343 66.9032C244.316 67.6771 245.046 68.7716 245.355 70.0651M261.419 42.028C260.512 42.2381 259.584 42.0944 258.788 41.6079C257.992 41.1215 257.439 40.3586 257.218 39.4521C256.765 37.5837 257.925 35.7042 259.794 35.262C260.689 35.0519 261.629 35.1957 262.425 35.6821C263.21 36.1686 263.774 36.9314 263.984 37.838C264.426 39.7064 263.276 41.5858 261.408 42.028" fill="#403644"/>
<path d="M181.943 51.9894C182.629 52.3874 183.392 52.5532 184.165 52.4979C184.387 52.4758 184.608 52.4426 184.818 52.3874C185.791 52.1331 186.565 51.525 187.051 50.7401L195.287 53.6145L195.807 52.111L187.604 49.2476C187.67 48.7722 187.648 48.2636 187.515 47.7661C186.985 45.7429 184.917 44.5379 182.894 45.0575C181.921 45.3118 181.103 45.9419 180.583 46.8153C180.075 47.6887 179.931 48.7058 180.185 49.6898C180.44 50.6627 181.07 51.4808 181.932 52.0004M181.623 47.4123C181.976 46.8153 182.529 46.3842 183.204 46.2183C183.358 46.1741 183.502 46.152 183.646 46.1409C184.873 46.0414 186.045 46.8264 186.366 48.0646C186.73 49.4466 185.901 50.8617 184.519 51.2265C183.845 51.4034 183.148 51.3039 182.551 50.9501C181.954 50.5964 181.523 50.0436 181.346 49.3692C181.18 48.6948 181.269 48.0093 181.623 47.4013" fill="#403644"/>
<path d="M209.747 49.3581C208.277 48.4516 206.597 48.0646 204.927 48.1973C204.518 48.2304 204.109 48.2968 203.7 48.3963C201.621 48.8938 199.864 50.1762 198.747 52.0004C197.63 53.8246 197.288 55.9804 197.785 58.0478C198.283 60.1263 199.554 61.8842 201.389 63.0008C203.213 64.1174 205.369 64.4601 207.437 63.9626C209.515 63.4651 211.273 62.1827 212.39 60.3585C213.506 58.5343 213.849 56.3784 213.352 54.311C212.854 52.2326 211.572 50.4747 209.747 49.3581Z" fill="white"/>
<path d="M207.146 61.7403C210.187 60.9443 212.011 57.8266 211.215 54.7863C210.419 51.746 207.301 49.9219 204.261 50.7179C201.221 51.5139 199.396 54.6316 200.192 57.6719C200.988 60.7122 204.106 62.5363 207.146 61.7403Z" fill="#CD6028"/>
<path d="M239.228 65.6099C238.929 65.632 238.642 65.6762 238.343 65.7536C236.84 66.1184 235.557 67.0471 234.75 68.3738C233.932 69.7004 233.689 71.2593 234.043 72.7629C234.407 74.2664 235.336 75.5489 236.663 76.3559C237.989 77.163 239.548 77.4173 241.052 77.0524C244.17 76.3007 246.093 73.1609 245.352 70.0432C244.678 67.224 242.036 65.3777 239.228 65.6099Z" fill="white"/>
<path d="M238.696 67.4783C236.617 68.0201 235.368 70.1538 235.91 72.2322C236.451 74.3107 238.585 75.5489 240.664 75.0183C242.742 74.4765 243.991 72.3428 243.45 70.2643C242.908 68.1859 240.774 66.9477 238.696 67.4783Z" fill="#3E6EB4"/>
<path d="M218.853 85.2448C218.853 85.2448 218.831 85.2448 218.82 85.2448C218.123 85.3001 217.526 85.676 217.184 86.273C216.83 86.8811 216.797 87.5997 217.106 88.2409C217.46 88.9706 218.278 89.457 219.096 89.4018C219.837 89.3686 220.423 88.9816 220.766 88.3736C221.12 87.7655 221.142 87.0469 220.843 86.4057C220.489 85.665 219.682 85.1896 218.864 85.2448" fill="white"/>
<path d="M262.567 35.4389C261.704 34.9193 260.698 34.7535 259.725 34.9856C257.702 35.4721 256.464 37.5063 256.939 39.5184C257.172 40.5024 257.78 41.3205 258.631 41.8512C259.493 42.3708 260.499 42.5366 261.472 42.3045C263.495 41.818 264.734 39.7838 264.258 37.7606C264.026 36.7877 263.429 35.9585 262.567 35.4279" fill="white"/>
<path d="M260.188 36.9317C259.215 37.186 258.64 38.181 258.894 39.1539C259.148 40.1268 260.143 40.7017 261.116 40.4474C262.078 40.1931 262.664 39.1981 262.41 38.2252C262.156 37.2523 261.161 36.6774 260.188 36.9317Z" fill="#CD6028"/>
</svg>
